<svg width="1440" height="2670" viewBox="0 0 1440 2670" fill="none" xmlns="http://www.w3.org/2000/svg">
<path d="M530 0V462H673C617.155 554.164 585.845 605.836 530 698L400 490.5H530V931.5V1250H615L530 1383H615L530 1515V1863H748V2086H974V2312H748V2534H530V2670M722 0V194H928V388H1144V584H1356H1438V1170H956V1670H1438V1863C1438 1863 1333.52 1881 1332 1972C1330.48 2063 1438 2074 1438 2074C1438 2074 1290 2084 1272 2234C1272 2390 1438 2410 1438 2410V2670M0 0V750C0 750 235 760 229 974C223 1188 0 1188.5 0 1188.5C0 1188.5 234 1202 229 1418C224 1634 0 1634 0 1634C0 1634 239.485 1647 229 1863C218.515 2079 0 2074 0 2074V2670" stroke="black" stroke-width="5"/>
</svg>
